<?xml version="1.0" encoding="UTF-8"?>
<svg version="1.1" xmlns="http://www.w3.org/2000/svg" width="500" height="500">
<path d="M0 0 C165 0 330 0 500 0 C500 165 500 330 500 500 C335 500 170 500 0 500 C0 335 0 170 0 0 Z " fill="#FEFEFE" transform="translate(0,0)"/>
<path d="M0 0 C7.59 0 15.18 0 23 0 C28.38599545 11.47917067 33.6550103 23.00702215 38.875 34.5625 C39.28197113 35.46253754 39.68894226 36.36257507 40.10824585 37.28988647 C46.91056182 52.33386724 53.66969685 67.39694675 60.39208984 82.47680664 C63.75530919 90.01683624 67.15359933 97.53728898 70.62670898 105.02758789 C72.742747 109.60763461 74.81032784 114.2091238 76.875 118.8125 C77.2771875 119.70775391 77.679375 120.60300781 78.09375 121.52539062 C79.06309135 123.6833291 80.03184159 125.84153061 81 128 C81.49886719 126.82050781 81.99773437 125.64101563 82.51171875 124.42578125 C88.20097733 111.03515983 94.10984155 97.75034159 100.08203125 84.484375 C101.05478445 82.3229603 102.02745028 80.16150627 103 78 C103.57016846 76.73458374 103.57016846 76.73458374 104.15185547 75.44360352 C106.6877779 69.78378048 109.04501793 64.06166766 111.35546875 58.30664062 C113.06938755 54.09164121 114.95189561 50.02469165 117.01806641 45.97143555 C118.61555342 42.76414872 120.02249326 39.47836431 121.4375 36.1875 C122.05016049 34.77447027 122.66344324 33.36171018 123.27734375 31.94921875 C123.57237793 31.27036621 123.86741211 30.59151367 124.17138672 29.89208984 C125.63144077 26.55814203 127.15440925 23.25338785 128.671875 19.9453125 C129.74206745 17.57200337 130.79120747 15.19257868 131.828125 12.8046875 C132.30475586 11.70737305 132.30475586 11.70737305 132.79101562 10.58789062 C133.42204143 9.13177608 134.05100555 7.67476605 134.67773438 6.21679688 C136.89090689 1.10909311 136.89090689 1.10909311 138 0 C139.66617115 -0.04063832 141.33388095 -0.042721 143 0 C142.37736535 3.78238801 141.27633385 6.94062375 139.69140625 10.42578125 C139.2005957 11.5125415 138.70978516 12.59930176 138.20410156 13.71899414 C137.66237305 14.90485107 137.12064453 16.09070801 136.5625 17.3125 C135.99002126 18.57584655 135.41809639 19.83944421 134.84667969 21.10327148 C133.59098599 23.87913322 132.332628 26.65376763 131.07275391 29.42773438 C128.85412659 34.31677156 126.65065939 39.21257946 124.44921875 44.109375 C124.06032974 44.97439133 123.67144073 45.83940765 123.27076721 46.7306366 C122.4840953 48.48059518 121.69745887 50.23056972 120.91085815 51.9805603 C119.06180542 56.09315807 117.21055165 60.2047642 115.359375 64.31640625 C115.00528061 65.10316238 114.65118622 65.88991852 114.28636169 66.70051575 C112.37812012 70.9402568 110.46833649 75.17929573 108.55664062 79.41748047 C108.15270081 80.31361557 107.74876099 81.20975067 107.33258057 82.13304138 C106.56173718 83.84312442 105.79040785 85.55298854 105.01849365 87.2625885 C102.26365891 93.37629488 99.56016801 99.50045378 97.125 105.75 C95.36238844 110.17980869 93.43113556 114.50991651 91.4375 118.83984375 C88.54793707 125.19217094 85.78574322 131.60162147 83 138 C81.68 138 80.36 138 79 138 C75.942051 132.13775676 73.14562046 126.18209753 70.5 120.125 C70.22792725 119.50238281 69.95585449 118.87976563 69.67553711 118.23828125 C67.9578783 114.27763328 66.29690504 110.29623286 64.65234375 106.3046875 C61.9457747 99.79561916 59.02809489 93.39444531 56.0625 87 C55.31323242 85.37191406 55.31323242 85.37191406 54.54882812 83.7109375 C52.0473134 78.30121018 49.48284011 72.93792335 46.7890625 67.62109375 C44.70483093 63.48662558 42.87751172 59.41707646 41.3125 55.0625 C39.86766432 51.05568766 38.21940706 47.62799074 36 44 C35.38064816 42.55659528 34.79753561 41.09714763 34.25 39.625 C31.76901911 33.25209871 28.82693393 27.10572251 25.90673828 20.92675781 C24.44148875 17.81320119 23.00257944 14.68777879 21.5625 11.5625 C21.06878906 10.49128906 20.57507813 9.42007813 20.06640625 8.31640625 C19.71449219 7.55199219 19.36257812 6.78757813 19 6 C15.37 5.67 11.74 5.34 8 5 C9.54117117 8.39605901 11.08281608 11.79190087 12.625 15.1875 C13.08430908 16.19893066 13.54361816 17.21036133 14.0168457 18.25244141 C16.38787303 23.46911934 18.77076725 28.67935384 21.1875 33.875 C23.64964671 39.18659739 25.99241303 44.54484371 28.32275391 49.91503906 C30.32992343 54.52082554 32.41856858 59.08142806 34.5625 63.625 C37.29861451 69.42501644 39.87107148 75.27860846 42.34765625 81.1953125 C43.73316229 84.44221977 45.21368176 87.64148152 46.69921875 90.84375 C50.47003586 98.98221254 54.11168468 107.17663262 57.75 115.375 C58.27407944 116.55422028 58.27407944 116.55422028 58.80874634 117.75726318 C63.53961429 128.40215484 68.24267672 139.05780149 72.81738281 149.77099609 C75.33498476 155.62585762 78.09587607 161.32721271 81 167 C90.2723403 146.48625293 99.52134079 125.96505013 108.49462891 105.31835938 C111.21090192 99.07201761 113.96353597 92.84724527 116.7956543 86.65258789 C118.90947018 81.99687947 120.94970258 77.30893505 123 72.625 C127.01396085 63.48107978 131.05848433 54.35128506 135.13867188 45.23675537 C135.70813691 43.96453852 136.27715506 42.69212153 136.84570312 41.41949463 C137.64573361 39.62929638 138.44783208 37.84002275 139.25 36.05078125 C139.70890625 35.02637939 140.1678125 34.00197754 140.640625 32.9465332 C142.03186993 29.93091986 143.49931737 26.9624689 145 24 C146.32 24.33 147.64 24.66 149 25 C148.43828089 29.84113178 146.89975248 33.74489187 144.75 38.0625 C142.45377019 42.81396535 140.33697229 47.54629807 138.5 52.5 C136.82911316 56.98203129 134.97280457 61.30414539 132.921875 65.625 C128.82576229 74.31552392 124.8826962 83.07314344 120.94628906 91.83691406 C119.73891812 94.52466962 118.52972953 97.21160209 117.3203125 99.8984375 C116.54156096 101.6301608 115.76291138 103.36192996 114.984375 105.09375 C114.62809021 105.88551636 114.27180542 106.67728271 113.90472412 107.49304199 C110.86167993 114.27130081 107.95238445 121.07703758 105.25 128 C102.93124096 133.8660433 100.39307121 139.5903012 97.68334961 145.28515625 C95.15045511 150.62020917 92.78377984 156.01899788 90.48461914 161.45874023 C88.60653174 165.83565326 86.42540533 169.8995326 84 174 C81.69 174 79.38 174 77 174 C75.89442408 171.64648632 74.79051018 169.2922159 73.6875 166.9375 C73.37876953 166.28072266 73.07003906 165.62394531 72.75195312 164.94726562 C70.7479174 160.6649577 68.84798798 156.35188155 67 152 C66.37840951 150.60264501 65.7538723 149.20659301 65.125 147.8125 C63.51590582 144.21353364 61.99731408 140.58433245 60.5 136.9375 C58.8261178 132.88844549 57.02487084 128.97843867 55.01416016 125.08886719 C53.98608652 122.97134238 53.12427636 120.84046469 52.27734375 118.64453125 C49.87446051 112.57712624 47.18223539 106.64948222 44.48516846 100.70828247 C40.24723378 91.36801638 36.12024954 82.0279959 32.42602539 72.45581055 C31.01605283 69.03890221 29.43336294 65.7917873 27.74609375 62.50390625 C24.05940053 55.23579993 20.72306916 47.83166705 17.4375 40.375 C13.89253007 32.33591275 10.2670428 24.36829412 6.25708008 16.546875 C3.62584531 11.21592897 1.87912382 5.63737146 0 0 Z " fill="#7292F1" transform="translate(127,163)"/>
<path d="M0 0 C1.65 0 3.3 0 5 0 C5 49.5 5 99 5 150 C27.77 150 50.54 150 74 150 C74 157.92 74 165.84 74 174 C43.31 174 12.62 174 -19 174 C-19 172.35 -19 170.7 -19 169 C10.04 169 39.08 169 69 169 C69 164.38 69 159.76 69 155 C46.23 155 23.46 155 0 155 C0 103.85 0 52.7 0 0 Z " fill="#7385E7" transform="translate(294,163)"/>
<path d="M0 0 C0.99 0 1.98 0 3 0 C3 49.5 3 99 3 150 C25.77 150 48.54 150 72 150 C72 150.33 72 150.66 72 151 C48.24 151.33 24.48 151.66 0 152 C0 101.84 0 51.68 0 0 Z " fill="#678AFC" transform="translate(295,164)"/>
<path d="M0 0 C0.33 0 0.66 0 1 0 C0.69343615 6.62177926 -0.74288723 11.22125154 -4 17 C-4.99 16.67 -5.98 16.34 -7 16 C-7 14.68 -7 13.36 -7 12 C-6.34 12 -5.68 12 -5 12 C-4.34 9.03 -3.68 6.06 -3 3 C-2.34 3 -1.68 3 -1 3 C-0.67 2.01 -0.34 1.02 0 0 Z " fill="#6B89F6" transform="translate(245,253)"/>
<path d="M0 0 C0.66 0 1.32 0 2 0 C0.58192622 4.47238653 -1.11304374 8.71146306 -3 13 C-3.144375 12.360625 -3.28875 11.72125 -3.4375 11.0625 C-3.81007181 9.02454854 -3.81007181 9.02454854 -5 8 C-5.66 8 -6.32 8 -7 8 C-6.3125 5.5625 -6.3125 5.5625 -5 3 C-2.375 2.1875 -2.375 2.1875 0 2 C0 1.34 0 0.68 0 0 Z " fill="#7B9BEC" transform="translate(239,229)"/>
<path d="M0 0 C0.66 0.99 1.32 1.98 2 3 C2.99 3 3.98 3 5 3 C3.25 8.75 3.25 8.75 1 11 C0.67 10.01 0.34 9.02 0 8 C-0.99 8.33 -1.98 8.66 -3 9 C-2.01 6.03 -1.02 3.06 0 0 Z " fill="#7E92EB" transform="translate(215,274)"/>
<path d="M0 0 C-0.875 4.75 -0.875 4.75 -2 7 C-4.0625 7.625 -4.0625 7.625 -6 8 C-6 6.02 -6 4.04 -6 2 C-2.25 0 -2.25 0 0 0 Z " fill="#6F89F5" transform="translate(222,270)"/>
<path d="M0 0 C7.59 0 15.18 0 23 0 C23 0.99 23 1.98 23 3 C22.67 2.67 22.34 2.34 22 2 C18.86257232 1.72313113 15.71070723 1.76826371 12.5625 1.75 C11.67755859 1.729375 10.79261719 1.70875 9.88085938 1.6875 C9.03458984 1.68234375 8.18832031 1.6771875 7.31640625 1.671875 C6.14766968 1.65785645 6.14766968 1.65785645 4.95532227 1.64355469 C4.31006592 1.76118164 3.66480957 1.87880859 3 2 C2.01 3.485 2.01 3.485 1 5 C0.67 3.35 0.34 1.7 0 0 Z " fill="#76A5ED" transform="translate(127,163)"/>
<path d="M0 0 C1.11529858 4.46119431 0.67626679 5.85344531 -1 10 C-1.99 11.485 -1.99 11.485 -3 13 C-3.66 12.67 -4.32 12.34 -5 12 C-3.35 8.04 -1.7 4.08 0 0 Z M0 7 C0.66 7 1.32 7 2 7 C2 8.65 2 10.3 2 12 C0 8.125 0 8.125 0 7 Z " fill="#87AAEB" transform="translate(262,168)"/>
<path d="M0 0 C1.65 0 3.3 0 5 0 C4.25 4.75 4.25 4.75 2 7 C1.67 6.01 1.34 5.02 1 4 C0.01 4.33 -0.98 4.66 -2 5 C-1.34 3.35 -0.68 1.7 0 0 Z " fill="#74A0EC" transform="translate(265,163)"/>
<path d="M0 0 C0 1.98 0 3.96 0 6 C-1.65 6.33 -3.3 6.66 -5 7 C-5 4 -5 4 -3.0625 1.8125 C-1 0 -1 0 0 0 Z " fill="#6C8DF4" transform="translate(250,245)"/>
<path d="M0 0 C0.33 1.32 0.66 2.64 1 4 C-1.97 6.475 -1.97 6.475 -5 9 C-5 7.68 -5 6.36 -5 5 C-4.34 5 -3.68 5 -3 5 C-2.5359375 4.0409375 -2.5359375 4.0409375 -2.0625 3.0625 C-1 1 -1 1 0 0 Z " fill="#6397FA" transform="translate(262,176)"/>
<path d="M0 0 C2.35953094 2.35953094 2.49141413 3.77895617 3 7 C1.35 7.33 -0.3 7.66 -2 8 C-1.34 5.36 -0.68 2.72 0 0 Z " fill="#759FED" transform="translate(141,183)"/>
</svg>
