<?xml version="1.0" encoding="UTF-8"?>
<svg version="1.1" xmlns="http://www.w3.org/2000/svg" width="500" height="500">
<path d="M0 0 C165 0 330 0 500 0 C500 165 500 330 500 500 C335 500 170 500 0 500 C0 335 0 170 0 0 Z " fill="#000001" transform="translate(0,0)"/>
<path d="M0 0 C3.3 0 6.6 0 10 0 C10 0.99 10 1.98 10 3 C9.34 3 8.68 3 8 3 C7.87496094 3.71929687 7.74992187 4.43859375 7.62109375 5.1796875 C7.00321999 7.98537842 6.14025662 10.465178 5.0625 13.125 C4.72347656 13.97320312 4.38445312 14.82140625 4.03515625 15.6953125 C3 18 3 18 1 21 C0.5978125 22.2684375 0.5978125 22.2684375 0.1875 23.5625 C-0.7681132 26.32874875 -1.78938391 28.62752913 -3.12890625 31.203125 C-6.76387808 38.39634275 -9.91783632 45.79689654 -13.125 53.1875 C-13.75106085 54.62445408 -14.37736151 56.06130371 -15.00390625 57.49804688 C-17.21063803 62.56227135 -19.41441257 67.6276548 -21.58837891 72.70605469 C-25.16161182 81.04401014 -28.97564999 89.26257994 -32.82919312 97.47406006 C-37.17745042 106.74586525 -41.51985349 116.02024595 -45.6875 125.375 C-45.98946289 126.04974365 -46.29142578 126.7244873 -46.60253906 127.41967773 C-48.3098125 131.28368847 -49.84070964 135.17912368 -51.25268555 139.15795898 C-52.05184777 141.12779858 -53.0313389 142.86620048 -54.125 144.6875 C-55.79325996 147.63475926 -56.59783513 149.68213986 -57 153 C-57.66 153 -58.32 153 -59 153 C-59.268125 154.216875 -59.53625 155.43375 -59.8125 156.6875 C-60.60578271 160.28778305 -62.10516325 162.85288253 -64 166 C-64.85397699 168.06667785 -65.66456321 170.15166668 -66.4375 172.25 C-67.92827184 176.23139671 -69.46887751 180.1398218 -71.25 184 C-72.61200744 186.98213727 -73.57673941 189.71973044 -74 193 C-74.66 193 -75.32 193 -76 193 C-76.66 195.97 -77.32 198.94 -78 202 C-78.66 202 -79.32 202 -80 202 C-80.14695313 203.03833984 -80.14695313 203.03833984 -80.296875 204.09765625 C-81.13657887 207.56376721 -82.57561138 210.2889214 -84.25 213.4375 C-86.70453962 218.16203677 -88.73859849 222.81308527 -90.4375 227.875 C-92.49304919 233.93310372 -95.12650936 239.44387551 -98.05834961 245.10668945 C-100.15094317 249.1857913 -101.9335501 253.24417866 -103.5 257.5625 C-106.2575401 265.10546191 -110.09924992 272.00188013 -114 279 C-115.98 279 -117.96 279 -120 279 C-124.04419702 271.11608782 -127.8225406 263.27947754 -131 255 C-133.36135124 249.08138739 -135.69413039 243.39042584 -138.98828125 237.921875 C-140.28608146 235.45655568 -141.21642024 232.92414113 -142.1875 230.3125 C-146.54524549 218.65149587 -151.94554354 207.409001 -157.1875 196.125 C-159.18480959 191.82310243 -161.08564562 187.49147769 -162.9375 183.125 C-165.28090221 177.60824062 -167.7602881 172.17578712 -170.31958008 166.75756836 C-172.5088219 162.10384854 -174.58481183 157.40825173 -176.625 152.6875 C-178.91108386 147.40184114 -181.32506057 142.22239791 -183.94921875 137.09375 C-185.44139733 134.12048711 -186.71686185 131.06837385 -188 128 C-188.62239702 126.60300407 -189.24760803 125.20725984 -189.875 123.8125 C-191.47365368 120.23078354 -192.99895407 116.62369063 -194.5 113 C-198.36228898 103.48612124 -198.36228898 103.48612124 -203.0625 94.375 C-205.00789034 90.98625553 -206.50682081 87.60851637 -208 84 C-208.64153464 82.53977053 -209.28762219 81.08153549 -209.9375 79.625 C-210.27910156 78.85800781 -210.62070313 78.09101563 -210.97265625 77.30078125 C-211.62521111 75.83935612 -212.27874358 74.37836682 -212.93359375 72.91796875 C-214.9997412 68.29699997 -217.01024616 63.65442419 -219 59 C-222.80686642 49.56081608 -222.80686642 49.56081608 -227.5 40.5625 C-228.89481118 38.17969757 -229.83109956 35.94764232 -230.8125 33.375 C-232.66040772 28.58042862 -235.01185824 24.24946151 -237.6328125 19.8359375 C-239 17 -239 17 -241 9 C-249.25 9 -257.5 9 -266 9 C-264.35 12.63 -262.7 16.26 -261 20 C-259.50012823 23.7604958 -258.05675285 27.53739516 -256.625 31.32421875 C-255.52710446 34.00319822 -254.20617493 36.33807406 -252.625 38.76171875 C-249.48619431 43.6255754 -247.26455861 48.8105604 -245 54.125 C-244.56357178 55.13602783 -244.12714355 56.14705566 -243.67749023 57.1887207 C-240.84015831 63.82895761 -238.26334955 70.48450006 -236.03515625 77.35546875 C-234.99007121 80.02536525 -233.7340857 81.74003869 -232 84 C-230.95486024 86.08211437 -229.9582063 88.18897509 -229 90.3125 C-228.47664063 91.46878906 -227.95328125 92.62507813 -227.4140625 93.81640625 C-225.91150814 97.19922892 -224.44223368 100.59108403 -223 104 C-222.33835856 105.54383003 -221.671376 107.08537835 -221 108.625 C-220.690625 109.33914062 -220.38125 110.05328125 -220.0625 110.7890625 C-219.007909 113.08231345 -219.007909 113.08231345 -217.49609375 115.4375 C-215.9732338 118.04584498 -215.017237 120.51488659 -214.0625 123.375 C-212.71746621 127.20630837 -211.20323295 130.5229865 -209.06640625 133.9921875 C-207.08389925 137.72481973 -205.77023394 141.74772714 -204.34375 145.71875 C-203.11289173 148.72433415 -201.62897498 151.39580962 -199.98144531 154.1875 C-198.3288221 157.23950864 -197.25892264 160.47811923 -196.125 163.75 C-194.01631012 169.6283619 -191.51621359 174.91751388 -188.37890625 180.33203125 C-186.38451226 184.19087287 -185.17032539 188.21043667 -183.95703125 192.37109375 C-182.98125109 195.05150211 -181.78077605 196.79682963 -180 199 C-178.74400504 201.82598866 -177.74059466 204.71645284 -176.6875 207.625 C-174.72622042 212.87142289 -172.35730714 217.92221516 -170 223 C-158 248.90428212 -158 248.90428212 -158 254 C-157.34 254 -156.68 254 -156 254 C-155.04521022 256.148277 -154.09057687 258.29662158 -153.13671875 260.4453125 C-152.43393993 262.02475357 -151.72870895 263.60310919 -151.01953125 265.1796875 C-149.14295536 269.3617709 -147.35505789 273.56750173 -145.625 277.8125 C-143.91508425 281.95616087 -142.05062248 285.95193117 -140 289.9375 C-137.31835751 295.18389287 -135.20133894 300.52888515 -133.1484375 306.046875 C-131.9598869 309.10314797 -130.56033215 311.93604947 -129.03515625 314.83203125 C-127.16097255 318.75720843 -125.73740672 322.8664439 -124.24609375 326.94921875 C-123.05721427 329.85992368 -121.621071 332.31471445 -120 335 C-118.93757251 337.31145269 -117.96896092 339.64680919 -117 342 C-112.66853643 333.44657615 -108.41254801 324.91463383 -104.7890625 316.03125 C-102.78425106 311.12249955 -100.78581585 306.503 -98.02734375 301.9609375 C-96.07259093 298.22981235 -94.75903034 294.21439424 -93.2890625 290.2734375 C-91.80775711 286.51181958 -90.04273688 282.97960788 -88.18359375 279.39453125 C-86.98400404 276.96763854 -85.97736267 274.52387228 -85 272 C-83.30179721 267.62042438 -81.288163 263.47762757 -79.15234375 259.296875 C-77.62614429 256.2548232 -76.32054427 253.13629265 -75 250 C-74.17098365 248.16471053 -73.33727405 246.33153698 -72.5 244.5 C-69.73011404 238.42438704 -67.12113358 232.2921624 -64.5625 226.125 C-62.44954163 221.04759258 -60.26457046 216.01133084 -58 211 C-57.60941406 210.12601563 -57.21882812 209.25203125 -56.81640625 208.3515625 C-54.76343184 203.78513344 -52.65243671 199.27162533 -50.375 194.8125 C-48.58441469 191.2813768 -47.12834387 187.76854089 -45.8046875 184.04296875 C-44.88643109 181.71166727 -43.7783133 179.53674709 -42.625 177.3125 C-40.66458778 173.49115916 -39.05834453 169.65079381 -37.5625 165.625 C-35.95579446 161.32204172 -34.18451816 157.26022757 -32.0625 153.1875 C-29.30779563 147.85467488 -27.22331666 142.42568788 -25.18432617 136.79516602 C-23.46747496 132.10499707 -21.46087061 127.69708853 -19.140625 123.26953125 C-17.99336011 120.98678844 -17.04526597 118.69505299 -16.125 116.3125 C-14.15998961 111.24357523 -11.87861616 106.34961863 -9.54931641 101.44067383 C-7.60260474 97.33149818 -5.78638795 93.18090797 -4 89 C-3.02792742 86.89254665 -2.04881524 84.78832531 -1.0625 82.6875 C0.71929104 78.84373456 2.44562185 75.0037266 4 71.0625 C4.309375 70.28003906 4.61875 69.49757813 4.9375 68.69140625 C5.77297889 66.57506451 6.60574599 64.4576522 7.4375 62.33984375 C7.95736901 61.05950386 8.47819906 59.77955375 9 58.5 C9.7115625 56.72109375 9.7115625 56.72109375 10.4375 54.90625 C12 52 12 52 14.015625 50.5390625 C16.84269872 49.77107791 18.44660729 50.72330364 21 52 C20.48870289 58.00774108 18.57358922 62.58816168 16 68 C15.3507584 69.47767387 14.70490268 70.95684017 14.0625 72.4375 C12.65390298 75.63031991 11.11553667 78.71976007 9.5 81.8125 C7.13285588 86.46715954 5.54641878 91.21265265 3.96484375 96.1796875 C2.65877908 99.99741498 0.91528634 103.45894735 -1 107 C-3.61931414 111.94228251 -5.64054415 116.5621766 -7 122 C-7.66 122 -8.32 122 -9 122 C-9.25305908 122.80744156 -9.25305908 122.80744156 -9.51123047 123.63119507 C-11.38719175 129.45370833 -13.63817679 135.01605599 -16.125 140.6015625 C-16.51316895 141.4822641 -16.90133789 142.3629657 -17.30126953 143.27035522 C-18.53039647 146.0569261 -19.76503438 148.84101255 -21 151.625 C-22.23367097 154.41668735 -23.46621911 157.20886865 -24.69873047 160.00106812 C-25.46242687 161.73002492 -26.22702308 163.45858466 -26.99267578 165.18667603 C-31.36183598 174.94939357 -31.36183598 174.94939357 -35 185 C-35.66 185 -36.32 185 -37 185 C-37.14695313 185.85271484 -37.14695313 185.85271484 -37.296875 186.72265625 C-38.37501512 192.28994878 -40.05198098 196.17596888 -43 201 C-43.73537148 202.66257899 -44.46891211 204.32640783 -45.16015625 206.0078125 C-46.17250008 208.40918624 -47.2757643 210.76215691 -48.375 213.125 C-50.66600795 218.12418452 -52.62993485 223.19956115 -54.49609375 228.37109375 C-55.78268316 231.47561728 -57.1886307 234.4026119 -58.7109375 237.39453125 C-62.15554757 244.20084417 -65.23041691 251.14381895 -68.26928711 258.13769531 C-69.19308408 260.26284591 -70.12255384 262.38544935 -71.05273438 264.5078125 C-71.65397946 265.88527109 -72.2549024 267.26287035 -72.85546875 268.640625 C-73.12739548 269.261651 -73.3993222 269.882677 -73.67948914 270.52252197 C-75.07471013 273.74074944 -76.38289212 276.97699339 -77.6027832 280.26464844 C-78.87465152 283.66489048 -80.32287637 286.78551305 -82 290 C-84.02313527 293.97152417 -85.8070291 297.87709097 -87.29296875 302.07421875 C-89.44909455 307.94698129 -92.24952267 313.54804473 -95.07421875 319.12109375 C-96.16735334 321.3396496 -97.13152294 323.60556308 -98.0859375 325.88671875 C-99.33841327 328.78239991 -100.67211029 331.63816872 -102 334.5 C-103.6254503 338.00437429 -105.24402587 341.5050203 -106.75 345.0625 C-107.7499055 347.41227793 -108.85796083 349.71592165 -110 352 C-114.29 352 -118.58 352 -123 352 C-126.62772001 345.88470055 -129.33413234 339.8012381 -131.8125 333.140625 C-133.3737481 329.01153463 -135.16464185 325.01252388 -137 321 C-137.66836857 319.50075756 -138.33501429 318.00074596 -139 316.5 C-139.33 315.7575 -139.66 315.015 -140 314.25 C-141 312 -142 309.75 -143 307.5 C-143.33128906 306.75621094 -143.66257813 306.01242187 -144.00390625 305.24609375 C-144.66239994 303.76125504 -145.31613555 302.27429613 -145.96484375 300.78515625 C-147.67709507 296.87242131 -149.47592457 293.04442247 -151.4375 289.25 C-155.14697609 281.91143895 -158.61518739 274.14330027 -160 266 C-160.66 266 -161.32 266 -162 266 C-162.41958984 264.83597656 -162.41958984 264.83597656 -162.84765625 263.6484375 C-165.10796331 257.55796381 -167.53067317 251.78271527 -170.5 246 C-173.2251565 240.67249448 -175.47991583 235.34598305 -177.5625 229.7421875 C-182.16771718 217.54513436 -187.48934435 205.57851017 -193.4921875 194.0078125 C-195.13809457 190.72452637 -196.57377577 187.38386351 -198 184 C-198.64297446 182.58203351 -199.28841222 181.1651785 -199.9375 179.75 C-206 166.15033784 -206 166.15033784 -206 162 C-206.66 162 -207.32 162 -208 162 C-208.31453125 161.154375 -208.6290625 160.30875 -208.953125 159.4375 C-209.38109375 158.303125 -209.8090625 157.16875 -210.25 156 C-210.66765625 154.88625 -211.0853125 153.7725 -211.515625 152.625 C-212.85112073 149.36357885 -214.3308803 146.27736502 -215.92919922 143.14257812 C-217.8831782 139.23283815 -219.65093308 135.23830307 -221.4375 131.25 C-221.83364502 130.36965088 -222.22979004 129.48930176 -222.63793945 128.58227539 C-224.73671967 123.89779795 -226.76579956 119.19807608 -228.6875 114.4375 C-230.68895761 109.50383701 -233.15672052 104.95638239 -235.86328125 100.375 C-237 98 -237 98 -237 94 C-237.66 94 -238.32 94 -239 94 C-239.28842773 93.22470947 -239.57685547 92.44941895 -239.87402344 91.65063477 C-243.03942644 83.2673214 -246.54548616 75.09788119 -250.25 66.9375 C-250.82382827 65.66649547 -251.39731007 64.39533446 -251.97045898 63.12402344 C-253.11046739 60.59665825 -254.25231074 58.07013697 -255.39599609 55.54443359 C-257.24550938 51.4574878 -259.0870894 47.36701902 -260.92675781 43.27563477 C-261.65331236 41.65994113 -262.38046808 40.04451761 -263.10839844 38.42944336 C-265.75519553 32.55645406 -265.75519553 32.55645406 -266.94775391 29.84570312 C-270.02185948 22.8589589 -273.32814261 15.98947363 -276.640625 9.11328125 C-277.07375 8.20964844 -277.506875 7.30601563 -277.953125 6.375 C-278.34661133 5.55773437 -278.74009766 4.74046875 -279.14550781 3.8984375 C-280 2 -280 2 -280 1 C-264.82 1 -249.64 1 -234 1 C-231.525 6.94 -231.525 6.94 -229 13 C-227.80069554 15.8171417 -226.59634414 18.63010478 -225.375 21.4375 C-225.08882812 22.10458984 -224.80265625 22.77167969 -224.5078125 23.45898438 C-222.90146319 27.149937 -221.11878933 30.58104449 -219 34 C-217.95701248 36.32301767 -216.96517244 38.64497926 -216 41 C-213.38650786 47.30933962 -210.77186372 53.61195802 -207.96875 59.83984375 C-207.2921888 61.34846611 -206.62635722 62.86192595 -205.96875 64.37890625 C-205.6284375 65.16136719 -205.288125 65.94382812 -204.9375 66.75 C-204.48697266 67.79414063 -204.48697266 67.79414063 -204.02734375 68.859375 C-203.00340158 71.08836605 -203.00340158 71.08836605 -201.515625 73.41015625 C-199.93128666 76.11741481 -198.8798056 78.73988707 -197.8125 81.6875 C-193.59026917 92.89606473 -188.68392079 103.82733599 -183.25 114.5 C-180.8787772 119.16179175 -178.77125203 123.81974473 -176.89453125 128.69921875 C-174.60719633 134.58236401 -171.9284819 140.27975599 -169.02734375 145.8828125 C-167.88149039 148.24422893 -166.86629771 150.65272371 -165.84106445 153.06835938 C-164.35490191 156.48157217 -162.72926199 159.82863638 -161.125 163.1875 C-158.3416161 169.05291685 -155.72995416 174.95062779 -153.28125 180.96484375 C-151.20523313 185.88272518 -148.90548996 190.69415389 -146.6328125 195.5234375 C-143.53725934 202.11444782 -140.68233257 208.75473891 -138 215.5234375 C-135.86482201 220.81133924 -133.53906769 225.98795922 -130.9375 231.0625 C-129.33585688 234.21013068 -128.10809132 237.4042456 -126.9140625 240.73046875 C-125.33381314 244.65407935 -123.34869794 248.37811524 -121.4296875 252.14453125 C-119.80830579 255.38286467 -118.37069165 258.64942042 -117 262 C-116.70867187 261.41476562 -116.41734375 260.82953125 -116.1171875 260.2265625 C-115.44340828 258.8837158 -114.76308375 257.54408554 -114.0703125 256.2109375 C-111.35617079 250.93967054 -109.13049567 245.5302228 -107 240 C-106.34 240 -105.68 240 -105 240 C-104.6596875 238.081875 -104.6596875 238.081875 -104.3125 236.125 C-103.30145379 231.55393192 -101.52749047 227.83692078 -99.34765625 223.71875 C-97.89308938 220.78431945 -96.75514063 217.82338574 -95.625 214.75 C-93.38876037 208.75856553 -90.61717606 203.1761911 -87.69921875 197.4921875 C-85.54255345 193.05986846 -83.82897443 188.52202099 -82.12109375 183.90234375 C-80.90108634 180.74392734 -79.45553557 177.79579517 -77.88671875 174.80078125 C-76.70856073 172.40813434 -75.87761091 169.90647029 -74.98046875 167.3984375 C-73.40196513 163.53707806 -71.44964291 159.86006464 -69.55419922 156.14746094 C-67.97047844 153.02047632 -66.49334026 149.92613354 -65.3125 146.625 C-64.343047 143.94746314 -63.35556706 141.63156076 -62.0625 139.125 C-60.64142847 136.36915257 -59.42077297 133.61224491 -58.30859375 130.71875 C-55.72745949 124.19918667 -52.83221432 117.82431903 -49.93652344 111.44042969 C-48.99910262 109.37302089 -48.06572714 107.3038205 -47.1328125 105.234375 C-42.17612755 94.26582677 -42.17612755 94.26582677 -39.703125 89.40625 C-38.17263057 86.34526114 -36.91676282 83.33795134 -35.75 80.125 C-32.54161793 71.5860772 -28.7578693 63.30834131 -25 55 C-24.34 55 -23.68 55 -23 55 C-22.6596875 53.081875 -22.6596875 53.081875 -22.3125 51.125 C-21.30626417 46.62488978 -19.62521324 42.9213128 -17.48828125 38.85546875 C-12.75769114 29.77919219 -8.70709795 20.48509715 -5.1328125 10.8984375 C-3.65614709 7.12021082 -1.89694478 3.58311792 0 0 Z " fill="#5F83EF" transform="translate(281,73)"/>
<path d="M0 0 C2.64 0 5.28 0 8 0 C8 100.32 8 200.64 8 304 C53.87 304 99.74 304 147 304 C147 319.51 147 335.02 147 351 C122.89626577 351.02254468 98.79254003 351.0409778 74.68879795 351.05181217 C63.4978504 351.05697572 52.30690985 351.06401954 41.1159668 351.07543945 C31.36570622 351.08538449 21.61545071 351.091853 11.8651852 351.09408849 C6.69910902 351.09539591 1.53304733 351.09848369 -3.63302422 351.10573006 C-8.48956334 351.11248744 -13.3460819 351.11461754 -18.20262527 351.11310768 C-19.99053242 351.11338414 -21.77844021 351.11539092 -23.56634331 351.11920547 C-25.99639799 351.12413833 -28.42637377 351.12299981 -30.85643005 351.12025452 C-31.57334265 351.12316736 -32.29025524 351.1260802 -33.02889246 351.12908131 C-37.88587879 351.11412121 -37.88587879 351.11412121 -39 350 C-39 347.69 -39 345.38 -39 343 C19.74 343 78.48 343 139 343 C139 332.77 139 322.54 139 312 C93.13 312 47.26 312 0 312 C0 209.04 0 106.08 0 0 Z " fill="#617CF3" transform="translate(340,74)"/>
<path d="M0 0 C2.31 0 4.62 0 7 0 C7 1.65 7 3.3 7 5 C6.67 4.01 6.34 3.02 6 2 C4.68 2.33 3.36 2.66 2 3 C1.67 104.64 1.34 206.28 1 311 C46.87 310.67 92.74 310.34 140 310 C140 320.56 140 331.12 140 342 C139.67 342 139.34 342 139 342 C139 332.1 139 322.2 139 312 C93.13 312 47.26 312 0 312 C0 209.04 0 106.08 0 0 Z " fill="#738AFC" transform="translate(340,74)"/>
<path d="M0 0 C2.31 0 4.62 0 7 0 C7 1.65 7 3.3 7 5 C6.67 4.01 6.34 3.02 6 2 C4.68 2.33 3.36 2.66 2 3 C1.67 44.91 1.34 86.82 1 130 C0.67 130 0.34 130 0 130 C0 87.1 0 44.2 0 0 Z " fill="#6BA9FC" transform="translate(340,74)"/>
<path d="M0 0 C14.85 0 29.7 0 45 0 C44.67 0.99 44.34 1.98 44 3 C43.29133789 2.83773926 42.58267578 2.67547852 41.85253906 2.50830078 C38.95606059 1.99217033 36.29915281 1.87062756 33.359375 1.8671875 C31.75255859 1.86525391 31.75255859 1.86525391 30.11328125 1.86328125 C28.44845703 1.86908203 28.44845703 1.86908203 26.75 1.875 C25.65558594 1.87113281 24.56117187 1.86726563 23.43359375 1.86328125 C17.20480391 1.87074088 11.17506308 2.17926377 5 3 C6.22556737 7.37702633 7.53060547 11.69677317 9 16 C6 13 6 13 0 0 Z " fill="#62A1F9" transform="translate(1,74)"/>
<path d="M0 0 C6.93 0.495 6.93 0.495 14 1 C14 1.33 14 1.66 14 2 C9.545 2.495 9.545 2.495 5 3 C6.22556737 7.37702633 7.53060547 11.69677317 9 16 C4.25228481 12.05069937 2.43517166 5.4656075 0 0 Z " fill="#609BF0" transform="translate(1,74)"/>
<path d="M0 0 C3.3 0 6.6 0 10 0 C10 0.99 10 1.98 10 3 C6.7 3 3.4 3 0 3 C0 3.66 0 4.32 0 5 C-0.66 5 -1.32 5 -2 5 C-1.34 3.35 -0.68 1.7 0 0 Z " fill="#4671BA" transform="translate(281,73)"/>
<path d="M0 0 C1.10546875 1.73828125 1.10546875 1.73828125 2 4 C1.42578125 6.10546875 1.42578125 6.10546875 0.3125 8.1875 C-0.21923828 9.22970703 -0.21923828 9.22970703 -0.76171875 10.29296875 C-2 12 -2 12 -5 13 C-4.54803755 11.39402675 -4.08817673 9.79027492 -3.625 8.1875 C-3.36976563 7.29417969 -3.11453125 6.40085937 -2.8515625 5.48046875 C-2 3 -2 3 0 0 Z " fill="#507ECC" transform="translate(278,80)"/>
<path d="M0 0 C8.25 0 16.5 0 25 0 C25 0.33 25 0.66 25 1 C24.01604248 1.02187378 24.01604248 1.02187378 23.01220703 1.04418945 C20.04919969 1.11851414 17.08733883 1.21522369 14.125 1.3125 C13.09246094 1.33505859 12.05992188 1.35761719 10.99609375 1.38085938 C9.51689453 1.4340332 9.51689453 1.4340332 8.0078125 1.48828125 C7.09660645 1.51446533 6.18540039 1.54064941 5.24658203 1.56762695 C4.50520996 1.71031006 3.76383789 1.85299316 3 2 C2.01 3.485 2.01 3.485 1 5 C0.67 3.35 0.34 1.7 0 0 Z " fill="#1F3369" transform="translate(15,82)"/>
<path d="M0 0 C0.99 0 1.98 0 3 0 C1.16508812 4.74018901 -0.91941459 9.36413251 -3 14 C-3.33 14 -3.66 14 -4 14 C-4 12.35 -4 10.7 -4 9 C-3.34 9 -2.68 9 -2 9 C-1.7834375 7.329375 -1.7834375 7.329375 -1.5625 5.625 C-1 2 -1 2 0 0 Z " fill="#5462C3" transform="translate(191,374)"/>
<path d="M0 0 C2.31 0.66 4.62 1.32 7 2 C6.67 2.99 6.34 3.98 6 5 C5.236875 4.79375 4.47375 4.5875 3.6875 4.375 C0.78114056 3.66608797 0.78114056 3.66608797 -2 6 C-1.125 1.125 -1.125 1.125 0 0 Z " fill="#5889DE" transform="translate(295,123)"/>
<path d="M0 0 C2.8326134 1.4163067 3.01707833 3.14497293 4.125 6.0625 C4.47820312 6.98160156 4.83140625 7.90070313 5.1953125 8.84765625 C5.46085937 9.55792969 5.72640625 10.26820313 6 11 C5.34 11.66 4.68 12.32 4 13 C3.32404685 11.58774074 2.65959941 10.16997095 2 8.75 C1.62875 7.96109375 1.2575 7.1721875 0.875 6.359375 C0 4 0 4 0 0 Z " fill="#5684D8" transform="translate(65,135)"/>
<path d="M0 0 C1.485 0.99 1.485 0.99 3 2 C2.67 2.66 2.34 3.32 2 4 C2.99 4.33 3.98 4.66 5 5 C5.6875 7.0625 5.6875 7.0625 6 9 C5.01 9 4.02 9 3 9 C2.01 6.03 1.02 3.06 0 0 Z " fill="#536FD0" transform="translate(76,239)"/>
<path d="M0 0 C3.0916909 2.52956528 3.90931332 5.22454612 5 9 C4.01 8.67 3.02 8.34 2 8 C0.3125 4.4375 0.3125 4.4375 -1 1 C-0.67 0.67 -0.34 0.34 0 0 Z " fill="#5081CF" transform="translate(50,85)"/>
<path d="M0 0 C0.66 0.99 1.32 1.98 2 3 C1.34 3 0.68 3 0 3 C-0.33 5.31 -0.66 7.62 -1 10 C-1.66 10 -2.32 10 -3 10 C-2.39009109 6.44219804 -1.4216319 3.3171411 0 0 Z " fill="#4E71C2" transform="translate(267,184)"/>
<path d="M0 0 C0.66 0 1.32 0 2 0 C3.06775224 1.96466413 4.06553465 3.96855359 5 6 C4.67 6.66 4.34 7.32 4 8 C1.10067643 5.60490662 0.49831724 3.68754757 0 0 Z " fill="#567BD0" transform="translate(114,228)"/>
<path d="M0 0 C0.99 0.33 1.98 0.66 3 1 C4.1875 4.5625 4.1875 4.5625 5 8 C2 7 2 7 0.8125 5.125 C0 3 0 3 0 0 Z " fill="#5074CD" transform="translate(62,190)"/>
<path d="M0 0 C0.66 1.32 1.32 2.64 2 4 C0.75 6.75 0.75 6.75 -1 9 C-1.66 9 -2.32 9 -3 9 C-2.01 6.03 -1.02 3.06 0 0 Z " fill="#476EB9" transform="translate(264,110)"/>
<path d="M0 0 C0.99 0.33 1.98 0.66 3 1 C3.33 3.64 3.66 6.28 4 9 C1.49701566 6.06171403 0.53069061 3.82097239 0 0 Z " fill="#5781DA" transform="translate(91,194)"/>
</svg>
